<svg id="Secure" xmlns="http://www.w3.org/2000/svg" width="16.875" height="20" viewBox="0 0 16.875 20">
  <g id="_x31_4_security">
    <path id="Path_189" data-name="Path 189" d="M48.2.095c-1.461,1.327-4.391,2.273-7.843,2.416a.365.365,0,0,0-.35.364V9.766a9.618,9.618,0,0,0,4.873,8.366l3.058,1.734a1.025,1.025,0,0,0,1.011,0l3.058-1.734A9.618,9.618,0,0,0,56.88,9.766V2.875a.365.365,0,0,0-.35-.364c-3.452-.144-6.382-1.09-7.843-2.416a.364.364,0,0,0-.49,0Z" transform="translate(-40.005 0)" fill="#6e4ff5"/>
    <path id="Path_190" data-name="Path 190" d="M84.037,64.422a8.12,8.12,0,0,1-4.107-7.051v-5.45a.337.337,0,0,1,.3-.335,15.905,15.905,0,0,0,6.4-1.981.335.335,0,0,1,.351,0,15.9,15.9,0,0,0,6.4,1.981.337.337,0,0,1,.3.335v5.45a8.12,8.12,0,0,1-4.107,7.051l-2.6,1.477a.337.337,0,0,1-.333,0Z" transform="translate(-78.37 -47.62)" fill="#d8ecfe"/>
    <path id="Path_191" data-name="Path 191" d="M184.16,104.4a2.924,2.924,0,0,0-2.92,2.92v1.91h1.147v-1.91a1.773,1.773,0,1,1,3.546,0v1.91h1.147v-1.91A2.924,2.924,0,0,0,184.16,104.4Z" transform="translate(-175.723 -100.325)" fill="#8d9ca8"/>
    <path id="Path_192" data-name="Path 192" d="M159.61,209.4h-6.648a.73.73,0,0,1-.73-.73v-4.763a.73.73,0,0,1,.73-.73h6.648a.73.73,0,0,1,.73.73v4.763A.73.73,0,0,1,159.61,209.4Z" transform="translate(-147.849 -195.246)" fill="#596c76"/>
    <path id="Path_193" data-name="Path 193" d="M231.153,237.262a1.053,1.053,0,1,0-1.581.911v1.214a.528.528,0,0,0,1.056,0v-1.214A1.052,1.052,0,0,0,231.153,237.262Z" transform="translate(-221.663 -226.982)" fill="#fff"/>
    <path id="Path_194" data-name="Path 194" d="M313.029,203.183h-1.141a.73.73,0,0,1,.73.73v4.763a.73.73,0,0,1-.73.73h1.141a.73.73,0,0,0,.73-.73v-4.763A.73.73,0,0,0,313.029,203.183Z" transform="translate(-301.268 -195.246)" fill="#465a61"/>
    <g id="Group_165" data-name="Group 165" transform="translate(7.467 2.418)">
      <path id="Path_195" data-name="Path 195" d="M240.215,62q-.657-.027-1.287-.093a.362.362,0,0,1,.087.236v6.891a9.618,9.618,0,0,1-4.873,8.366l-2.984,1.692.465.264a1.025,1.025,0,0,0,1.011,0l3.058-1.734a9.618,9.618,0,0,0,4.873-8.366V62.365a.365.365,0,0,0-.35-.364Z" transform="translate(-231.157 -61.908)" fill="#3b1cc2"/>
    </g>
  </g>
</svg>
