<svg xmlns="http://www.w3.org/2000/svg" width="252.926" height="119.887" viewBox="0 0 252.926 119.887">
  <g id="Group_238" data-name="Group 238" transform="translate(-833.292 -485)">
    <g id="dragdrop" transform="translate(917.217 583.396) rotate(161)">
      <path id="Path_239" data-name="Path 239" d="M54.03,0H50.737a.995.995,0,1,0,0,1.99H54.03a.995.995,0,0,0,0-1.99ZM45.467,0H42.174a.995.995,0,0,0,0,1.99h3.293a.995.995,0,0,0,0-1.99ZM36.9,0H33.611a.995.995,0,0,0,0,1.99H36.9A.995.995,0,0,0,36.9,0ZM28.342,0H25.048a.995.995,0,1,0,0,1.99h3.293a.995.995,0,0,0,0-1.99ZM19.779,0H16.485a.995.995,0,1,0,0,1.99h3.293a.995.995,0,0,0,0-1.99ZM11.216,0H7.922a.995.995,0,0,0,0,1.99h3.294a.995.995,0,1,0,0-1.99ZM.995,6.928a1,1,0,0,0-.995,1v3.293a.995.995,0,0,0,1.99,0V7.923a1,1,0,0,0-1-.995Zm0,8.563a1,1,0,0,0-.995,1v3.293a.995.995,0,0,0,1.99,0V16.486a1,1,0,0,0-1-.995Zm0,8.563a1,1,0,0,0-.995,1v3.293a.995.995,0,0,0,1.99,0V25.048a1,1,0,0,0-1-.995Zm0,8.563a1,1,0,0,0-.995,1V36.9a.995.995,0,1,0,1.99,0V33.611a1,1,0,0,0-1-.995Zm0,8.563a1,1,0,0,0-.995,1v3.293a.995.995,0,0,0,1.99,0V42.174a1,1,0,0,0-1-.995Zm0,8.563a1,1,0,0,0-.995,1V54.03a.995.995,0,1,0,1.99,0V50.737a1,1,0,0,0-1-.995ZM54.03,59.963H50.737a.995.995,0,0,0,0,1.99H54.03a.995.995,0,1,0,0-1.99Zm-8.563,0H42.174a.995.995,0,1,0,0,1.99h3.293a.995.995,0,0,0,0-1.99Zm-8.563,0H33.611a.995.995,0,1,0,0,1.99H36.9a.995.995,0,1,0,0-1.99Zm-8.563,0H25.048a.995.995,0,1,0,0,1.99h3.293a.995.995,0,1,0,0-1.99Zm-8.563,0H16.486a.995.995,0,1,0,0,1.99h3.293a.995.995,0,0,0,0-1.99Zm-8.563,0H7.923a.995.995,0,1,0,0,1.99h3.293a.995.995,0,1,0,0-1.99ZM60.958,6.928a1,1,0,0,0-.995,1v3.293a.995.995,0,0,0,1.99,0V7.923a1,1,0,0,0-1-.995Zm0,8.563a1,1,0,0,0-.995,1v3.293a.995.995,0,0,0,1.99,0V16.486a1,1,0,0,0-1-.995Zm0,8.563a1,1,0,0,0-.995,1v3.293a.995.995,0,0,0,1.99,0V25.049a1,1,0,0,0-1-.995Zm0,8.563a1,1,0,0,0-.995,1V36.9a.995.995,0,0,0,1.99,0V33.611a1,1,0,0,0-1-.995Zm0,8.563a1,1,0,0,0-.995,1v3.293a.995.995,0,0,0,1.99,0V42.174a1,1,0,0,0-1-.995Zm0,8.563a1,1,0,0,0-.995,1V54.03a.995.995,0,0,0,1.99,0V50.737a1,1,0,0,0-1-.995Z" transform="translate(2.03 2.057)" fill="#e9e9eb"/>
      <g id="Group_194" data-name="Group 194" transform="translate(0 0)">
        <ellipse id="Ellipse_12" data-name="Ellipse 12" cx="3.151" cy="3.151" rx="3.151" ry="3.151" transform="translate(59.71 59.764)" fill="#d9d9d9"/>
        <ellipse id="Ellipse_13" data-name="Ellipse 13" cx="3.151" cy="3.151" rx="3.151" ry="3.151" transform="translate(0 59.764)" fill="#d9d9d9"/>
        <ellipse id="Ellipse_14" data-name="Ellipse 14" cx="3.151" cy="3.151" rx="3.151" ry="3.151" transform="translate(59.71 0)" fill="#d9d9d9"/>
        <ellipse id="Ellipse_15" data-name="Ellipse 15" cx="3.151" cy="3.151" rx="3.151" ry="3.151" fill="#d9d9d9"/>
      </g>
      <g id="Group_195" data-name="Group 195" transform="translate(0.159 0)">
        <path id="Path_240" data-name="Path 240" d="M65.853,62.915a3.151,3.151,0,0,0-6.144-.987,3.149,3.149,0,0,1,4.537,3.732,3.143,3.143,0,0,0,1.607-2.745Zm-59.71,0A3.151,3.151,0,0,0,0,61.928a3.12,3.12,0,0,1,1.544-.406A3.152,3.152,0,0,1,4.7,64.672a3.114,3.114,0,0,1-.159.987A3.143,3.143,0,0,0,6.144,62.915ZM65.853,3.151a3.151,3.151,0,0,0-6.144-.987A3.149,3.149,0,0,1,64.247,5.9a3.143,3.143,0,0,0,1.607-2.745Zm-59.71,0A3.151,3.151,0,0,0,0,2.164,3.15,3.15,0,0,1,4.7,4.908a3.114,3.114,0,0,1-.159.987A3.143,3.143,0,0,0,6.144,3.151Z" transform="translate(0 0)" fill="#e9e9eb"/>
      </g>
      <path id="Path_241" data-name="Path 241" d="M47.993,0H2.538A2.538,2.538,0,0,0,0,2.538V45.79a2.538,2.538,0,0,0,2.538,2.538H47.993a2.538,2.538,0,0,0,2.538-2.538V2.538A2.538,2.538,0,0,0,47.993,0Z" transform="translate(7.741 8.869)" fill="#deecf1"/>
      <path id="Path_242" data-name="Path 242" d="M6.252,45.79V2.537A2.538,2.538,0,0,0,3.713,0H0A2.537,2.537,0,0,1,2.537,2.537V45.79A2.537,2.537,0,0,1,0,48.327H3.713A2.538,2.538,0,0,0,6.252,45.79Z" transform="translate(52.02 8.87)" fill="#cbe5e8"/>
      <path id="Path_243" data-name="Path 243" d="M0,20.085l12.061,6.89a4.847,4.847,0,0,0,4.986-.107l12.125-7.633V2.538A2.538,2.538,0,0,0,26.634,0H0Z" transform="translate(29.099 8.869)" fill="#e9e9eb"/>
      <path id="Path_244" data-name="Path 244" d="M6.252,19.233V2.537A2.538,2.538,0,0,0,3.713,0H0A2.537,2.537,0,0,1,2.537,2.537V21.572Z" transform="translate(52.02 8.87)" fill="#d6d6db"/>
      <path id="Path_245" data-name="Path 245" d="M0,24.164l10.726,5.921a4.847,4.847,0,0,0,5.3-.406L36.989,13.5a6.026,6.026,0,0,0,2.344-4.77V0H2.538A2.538,2.538,0,0,0,0,2.538V24.164Z" transform="translate(7.741 8.869)" fill="#e9e9eb"/>
      <path id="Path_246" data-name="Path 246" d="M30.4,11.694V0H25.566V7.066a6.286,6.286,0,0,1-2.446,4.977L2.263,28.14A4.82,4.82,0,0,1,0,29.1l1.789.987a4.847,4.847,0,0,0,5.3-.407Z" transform="translate(16.679 8.87)" fill="#d3d3d8"/>
      <ellipse id="Ellipse_16" data-name="Ellipse 16" cx="4.976" cy="4.976" rx="4.976" ry="4.976" transform="translate(41.631 42.286)" fill="#fff"/>
      <path id="Path_247" data-name="Path 247" d="M9.74,4.976A4.977,4.977,0,0,0,0,3.534,4.979,4.979,0,0,1,7.885,8.852,4.965,4.965,0,0,0,9.74,4.976Z" transform="translate(41.844 42.286)" fill="#dadadc"/>
    </g>
    <g id="dragdrop-2" data-name="dragdrop" transform="translate(1023.801 520.929) rotate(19)">
      <path id="Path_239-2" data-name="Path 239" d="M54.031,61.953H50.737a.995.995,0,1,1,0-1.99h3.293a.995.995,0,1,1,0,1.99Zm-8.563,0H42.174a.995.995,0,1,1,0-1.99h3.293a.995.995,0,1,1,0,1.99Zm-8.563,0H33.611a.995.995,0,1,1,0-1.99H36.9a.995.995,0,1,1,0,1.99Zm-8.563,0H25.049a.995.995,0,1,1,0-1.99h3.293a.995.995,0,1,1,0,1.99Zm-8.563,0H16.486a.995.995,0,1,1,0-1.99h3.293a.995.995,0,1,1,0,1.99Zm-8.563,0H7.923a.995.995,0,1,1,0-1.99h3.294a.995.995,0,1,1,0,1.99ZM1,55.026a1,1,0,0,1-1-1V50.737a1,1,0,0,1,1.99,0v3.293a1,1,0,0,1-1,.995Zm0-8.563a1,1,0,0,1-1-1V42.174a1,1,0,0,1,1.99,0v3.293a1,1,0,0,1-1,1ZM1,37.9a1,1,0,0,1-1-1V33.611a1,1,0,0,1,1.99,0V36.9a1,1,0,0,1-1,.995Zm0-8.563a1,1,0,0,1-1-1V25.049a1,1,0,0,1,1.99,0v3.293a1,1,0,0,1-1,.995Zm0-8.563a1,1,0,0,1-.995-1V16.486a1,1,0,0,1,1.99,0v3.293a1,1,0,0,1-1,1Zm0-8.563a1,1,0,0,1-.995-1V7.923a1,1,0,0,1,1.99,0v3.293a1,1,0,0,1-1,.995ZM54.031,1.99H50.738a.995.995,0,0,1,0-1.99h3.294a.995.995,0,1,1,0,1.99Zm-8.563,0H42.175a.995.995,0,1,1,0-1.99h3.293a.995.995,0,1,1,0,1.99Zm-8.563,0H33.612a.995.995,0,1,1,0-1.99h3.293a.995.995,0,1,1,0,1.99Zm-8.563,0H25.049a.995.995,0,1,1,0-1.99h3.294a.995.995,0,1,1,0,1.99Zm-8.563,0H16.486a.995.995,0,1,1,0-1.99h3.293a.995.995,0,1,1,0,1.99Zm-8.563,0H7.923a.995.995,0,1,1,0-1.99h3.293a.995.995,0,1,1,0,1.99ZM60.959,55.025a1,1,0,0,1-.995-1V50.737a1,1,0,0,1,1.99,0V54.03a1,1,0,0,1-1,.995Zm0-8.563a1,1,0,0,1-.995-1V42.174a1,1,0,0,1,1.99,0v3.294a1,1,0,0,1-1,.995Zm0-8.563a1,1,0,0,1-.995-1V33.611a1,1,0,0,1,1.99,0V36.9a1,1,0,0,1-1,.995Zm0-8.563a1,1,0,0,1-.995-1V25.048a1,1,0,0,1,1.99,0v3.293a1,1,0,0,1-1,.995Zm0-8.563a1,1,0,0,1-.995-1V16.486a1,1,0,0,1,1.99,0v3.293a1,1,0,0,1-1,.995Zm0-8.563a1,1,0,0,1-.995-1V7.923a1,1,0,0,1,1.99,0v3.293a1,1,0,0,1-1,.995Z" transform="translate(2.03 2.057)" fill="#e9e9eb"/>
      <g id="Group_194-2" data-name="Group 194" transform="translate(0 0)">
        <ellipse id="Ellipse_12-2" data-name="Ellipse 12" cx="3.151" cy="3.151" rx="3.151" ry="3.151" transform="translate(59.711 0)" fill="#d9d9d9"/>
        <ellipse id="Ellipse_13-2" data-name="Ellipse 13" cx="3.151" cy="3.151" rx="3.151" ry="3.151" transform="translate(0 0)" fill="#d9d9d9"/>
        <ellipse id="Ellipse_14-2" data-name="Ellipse 14" cx="3.151" cy="3.151" rx="3.151" ry="3.151" transform="translate(59.711 59.764)" fill="#d9d9d9"/>
        <ellipse id="Ellipse_15-2" data-name="Ellipse 15" cx="3.151" cy="3.151" rx="3.151" ry="3.151" transform="translate(0 59.764)" fill="#d9d9d9"/>
      </g>
      <g id="Group_195-2" data-name="Group 195" transform="translate(0.159 0.406)">
        <path id="Path_240-2" data-name="Path 240" d="M65.854,2.745a3.151,3.151,0,0,1-6.144.987,3.125,3.125,0,0,0,1.545.406A3.151,3.151,0,0,0,64.407.987,3.115,3.115,0,0,0,64.248,0a3.143,3.143,0,0,1,1.607,2.745Zm-59.71,0A3.151,3.151,0,0,1,0,3.732a3.12,3.12,0,0,0,1.544.406A3.152,3.152,0,0,0,4.7.987,3.114,3.114,0,0,0,4.537,0,3.143,3.143,0,0,1,6.144,2.745Zm59.71,59.764a3.151,3.151,0,0,1-6.144.987,3.149,3.149,0,0,0,4.537-3.732,3.143,3.143,0,0,1,1.607,2.745Zm-59.71,0A3.151,3.151,0,0,1,0,63.5a3.15,3.15,0,0,0,4.7-2.745,3.114,3.114,0,0,0-.159-.987A3.143,3.143,0,0,1,6.144,62.509Z" fill="#e9e9eb"/>
      </g>
      <path id="Path_241-2" data-name="Path 241" d="M47.993,48.328H2.538A2.538,2.538,0,0,1,0,45.79V2.538A2.538,2.538,0,0,1,2.538,0H47.993a2.538,2.538,0,0,1,2.538,2.538V45.79A2.538,2.538,0,0,1,47.993,48.328Z" transform="translate(7.741 8.869)" fill="#deecf1"/>
      <path id="Path_242-2" data-name="Path 242" d="M6.252,2.537V45.79a2.538,2.538,0,0,1-2.538,2.537H0A2.537,2.537,0,0,0,2.537,45.79V2.537A2.537,2.537,0,0,0,0,0H3.713A2.538,2.538,0,0,1,6.252,2.537Z" transform="translate(52.02 8.87)" fill="#cbe5e8"/>
      <path id="Path_243-2" data-name="Path 243" d="M0,7.528,12.061.638a4.847,4.847,0,0,1,4.986.107L29.173,8.379v16.7a2.538,2.538,0,0,1-2.538,2.538H0Z" transform="translate(29.099 29.584)" fill="#e9e9eb"/>
      <path id="Path_244-2" data-name="Path 244" d="M6.252,2.338v16.7a2.538,2.538,0,0,1-2.538,2.537H0a2.537,2.537,0,0,0,2.537-2.537V0Z" transform="translate(52.02 35.625)" fill="#d6d6db"/>
      <path id="Path_245-2" data-name="Path 245" d="M0,6.525,10.727.6a4.847,4.847,0,0,1,5.3.406L36.989,17.186a6.026,6.026,0,0,1,2.344,4.77v8.732H2.538A2.538,2.538,0,0,1,0,28.151V6.525Z" transform="translate(7.741 26.509)" fill="#e9e9eb"/>
      <path id="Path_246-2" data-name="Path 246" d="M30.4,18.995V30.688H25.566V23.622a6.286,6.286,0,0,0-2.446-4.977L2.263,2.549A4.82,4.82,0,0,0,0,1.591L1.789.6a4.847,4.847,0,0,1,5.3.407Z" transform="translate(16.679 26.508)" fill="#d3d3d8"/>
      <ellipse id="Ellipse_16-2" data-name="Ellipse 16" cx="4.976" cy="4.976" rx="4.976" ry="4.976" transform="translate(41.632 13.827)" fill="#fff"/>
      <path id="Path_247-2" data-name="Path 247" d="M9.74,3.876A4.977,4.977,0,0,1,0,5.317a4.955,4.955,0,0,0,3.12,1.1A4.981,4.981,0,0,0,7.885,0,4.965,4.965,0,0,1,9.74,3.876Z" transform="translate(41.844 14.928)" fill="#dadadc"/>
    </g>
    <g id="dragdrop-3" data-name="dragdrop" transform="translate(909.791 485)">
      <path id="Path_239-3" data-name="Path 239" d="M98.538,110.65H93.5a1.521,1.521,0,1,1,0-3.042h5.035a1.521,1.521,0,1,1,0,3.042Zm-13.091,0H80.412a1.521,1.521,0,1,1,0-3.042h5.035a1.521,1.521,0,0,1,0,3.042Zm-13.091,0H67.322a1.521,1.521,0,1,1,0-3.042h5.035a1.521,1.521,0,1,1,0,3.042Zm-13.091,0H54.231a1.521,1.521,0,1,1,0-3.042h5.035a1.521,1.521,0,0,1,0,3.042Zm-13.091,0H41.14a1.521,1.521,0,1,1,0-3.042h5.035a1.521,1.521,0,1,1,0,3.042Zm-13.091,0H28.05a1.521,1.521,0,1,1,0-3.042h5.035a1.521,1.521,0,0,1,0,3.042ZM17.459,100.059a1.521,1.521,0,0,1-1.521-1.521V93.5a1.521,1.521,0,0,1,3.042,0v5.035a1.521,1.521,0,0,1-1.521,1.521Zm0-13.091a1.521,1.521,0,0,1-1.521-1.521V80.412a1.521,1.521,0,1,1,3.042,0v5.035a1.521,1.521,0,0,1-1.521,1.521Zm0-13.091a1.521,1.521,0,0,1-1.521-1.521V67.322a1.521,1.521,0,0,1,3.042,0v5.035a1.521,1.521,0,0,1-1.521,1.521Zm0-13.091a1.521,1.521,0,0,1-1.521-1.521V54.231a1.521,1.521,0,0,1,3.042,0v5.035a1.521,1.521,0,0,1-1.521,1.521Zm0-13.09a1.521,1.521,0,0,1-1.521-1.521V41.141a1.521,1.521,0,0,1,3.042,0v5.035A1.521,1.521,0,0,1,17.459,47.7Zm0-13.091a1.521,1.521,0,0,1-1.521-1.521V28.05a1.521,1.521,0,0,1,3.042,0v5.035a1.521,1.521,0,0,1-1.521,1.521ZM98.538,18.98H93.5a1.521,1.521,0,0,1,0-3.042h5.035a1.521,1.521,0,1,1,0,3.042Zm-13.091,0H80.412a1.521,1.521,0,1,1,0-3.042h5.035a1.521,1.521,0,0,1,0,3.042Zm-13.091,0H67.322a1.521,1.521,0,1,1,0-3.042h5.035a1.521,1.521,0,1,1,0,3.042Zm-13.09,0H54.231a1.521,1.521,0,0,1,0-3.042h5.035a1.521,1.521,0,1,1,0,3.042Zm-13.091,0H41.141a1.521,1.521,0,0,1,0-3.042h5.035a1.521,1.521,0,0,1,0,3.042Zm-13.091,0H28.05a1.521,1.521,0,0,1,0-3.042h5.035a1.521,1.521,0,0,1,0,3.042Zm76.044,81.079a1.521,1.521,0,0,1-1.521-1.521V93.5a1.521,1.521,0,0,1,3.042,0v5.035a1.521,1.521,0,0,1-1.521,1.521Zm0-13.091a1.521,1.521,0,0,1-1.521-1.521V80.412a1.521,1.521,0,0,1,3.042,0v5.035a1.521,1.521,0,0,1-1.521,1.521Zm0-13.091a1.521,1.521,0,0,1-1.521-1.521V67.322a1.521,1.521,0,0,1,3.042,0v5.035a1.521,1.521,0,0,1-1.521,1.521Zm0-13.091a1.521,1.521,0,0,1-1.521-1.521V54.231a1.521,1.521,0,0,1,3.042,0v5.035a1.521,1.521,0,0,1-1.521,1.521Zm0-13.091a1.521,1.521,0,0,1-1.521-1.521V41.141a1.521,1.521,0,0,1,3.042,0v5.035a1.521,1.521,0,0,1-1.521,1.521Zm0-13.091a1.521,1.521,0,0,1-1.521-1.521V28.05a1.521,1.521,0,0,1,3.042,0v5.035a1.521,1.521,0,0,1-1.521,1.521Z" transform="translate(-12.626 -12.794)" fill="#e9e9eb"/>
      <g id="Group_194-3" data-name="Group 194" transform="translate(0.209 0)">
        <circle id="Ellipse_12-3" data-name="Ellipse 12" cx="4.817" cy="4.817" r="4.817" transform="translate(91.283 0)" fill="#7ca1b1"/>
        <circle id="Ellipse_13-3" data-name="Ellipse 13" cx="4.817" cy="4.817" r="4.817" transform="translate(0 0)" fill="#7ca1b1"/>
        <circle id="Ellipse_14-3" data-name="Ellipse 14" cx="4.817" cy="4.817" r="4.817" transform="translate(91.283 91.366)" fill="#7ca1b1"/>
        <circle id="Ellipse_15-3" data-name="Ellipse 15" cx="4.817" cy="4.817" r="4.817" transform="translate(0 91.366)" fill="#7ca1b1"/>
      </g>
      <g id="Group_195-3" data-name="Group 195" transform="translate(0.452 0.621)">
        <path id="Path_240-3" data-name="Path 240" d="M102.116,7.345a4.817,4.817,0,0,1-9.392,1.509,4.814,4.814,0,0,0,6.936-5.7,4.805,4.805,0,0,1,2.456,4.2Zm-91.282,0A4.817,4.817,0,0,1,1.441,8.854,4.77,4.77,0,0,0,3.8,9.475,4.819,4.819,0,0,0,8.62,4.658a4.761,4.761,0,0,0-.243-1.509A4.805,4.805,0,0,1,10.833,7.345Zm91.282,91.366a4.817,4.817,0,0,1-9.392,1.509,4.814,4.814,0,0,0,6.936-5.7,4.805,4.805,0,0,1,2.456,4.2Zm-91.282,0a4.817,4.817,0,0,1-9.392,1.509,4.815,4.815,0,0,0,7.179-4.2,4.761,4.761,0,0,0-.243-1.509A4.805,4.805,0,0,1,10.833,98.711Z" transform="translate(-1.441 -3.149)" fill="#3d6098"/>
      </g>
      <path id="Path_241-3" data-name="Path 241" d="M133.567,142.616H64.077a3.88,3.88,0,0,1-3.88-3.88V72.613a3.88,3.88,0,0,1,3.88-3.88h69.49a3.88,3.88,0,0,1,3.88,3.88v66.123A3.88,3.88,0,0,1,133.567,142.616Z" transform="translate(-48.154 -55.174)" fill="#deecf1"/>
      <path id="Path_242-3" data-name="Path 242" d="M412.909,72.617V138.74a3.88,3.88,0,0,1-3.881,3.879h-5.677a3.878,3.878,0,0,0,3.879-3.879V72.617a3.878,3.878,0,0,0-3.879-3.879h5.677A3.88,3.88,0,0,1,412.909,72.617Z" transform="translate(-323.617 -55.178)" fill="#cbe5e8"/>
      <path id="Path_243-3" data-name="Path 243" d="M225.72,240.781l18.438-10.533a7.409,7.409,0,0,1,7.623.163l18.536,11.67v25.525a3.88,3.88,0,0,1-3.88,3.88H225.72Z" transform="translate(-181.025 -184.045)" fill="#c3d5f1"/>
      <path id="Path_244-3" data-name="Path 244" d="M412.909,279.659v25.525a3.88,3.88,0,0,1-3.881,3.879h-5.677a3.878,3.878,0,0,0,3.879-3.879v-29.1Z" transform="translate(-323.617 -221.622)" fill="#3d6098"/>
      <path id="Path_245-3" data-name="Path 245" d="M60.2,215.41l16.4-9.052a7.41,7.41,0,0,1,8.108.621l32.041,24.729A9.212,9.212,0,0,1,120.328,239v13.35H64.077a3.88,3.88,0,0,1-3.88-3.88V215.41Z" transform="translate(-48.154 -164.91)" fill="#3d6098"/>
      <path id="Path_246-3" data-name="Path 246" d="M175.935,234.472v17.877h-7.383v-10.8a9.611,9.611,0,0,0-3.739-7.608L132.926,209.33a7.369,7.369,0,0,0-3.459-1.465l2.735-1.509a7.41,7.41,0,0,1,8.108.622Z" transform="translate(-103.76 -164.909)" fill="#20325a"/>
      <circle id="Ellipse_16-3" data-name="Ellipse 16" cx="7.608" cy="7.608" r="7.608" transform="translate(63.854 21.139)" fill="#fea613"/>
      <path id="Path_247-3" data-name="Path 247" d="M339.379,121.616a7.608,7.608,0,0,1-14.89,2.2,7.612,7.612,0,0,0,12.055-8.129A7.59,7.59,0,0,1,339.379,121.616Z" transform="translate(-260.311 -92.869)" fill="#fb8801"/>
    </g>
  </g>
</svg>
